<svg width="32" height="32" viewBox="0 0 64 64" fill="none" xmlns="http://www.w3.org/2000/svg">
<rect width="64" height="64" rx="16" fill="url(#paint0_linear_271_1960)"/>
<path d="M11.2 35.2784L16.4 46H6L11.2 35.2784Z" fill="#ECEBFF"/>
<path d="M16.4 24.7216L21.6 35.3608L11.2 35.2784L16.4 24.7216Z" fill="#D9D8F2"/>
<path d="M21.6 14L26.8 24.7216H16.4L21.6 14Z" fill="#ECEBFF"/>
<path d="M26.8 24.7216L32 35.3608H21.6L26.8 24.7216Z" fill="#ECEBFF"/>
<path d="M32 35.3608L37.2 46H26.8L32 35.3608Z" fill="#ECEBFF"/>
<path d="M37.2 46L32 35.3608L42.4 35.3608L37.2 46Z" fill="#D9D8F2"/>
<path d="M26.8 46L21.6 35.3608H32L26.8 46Z" fill="#D9D8F2"/>
<path d="M21.6 35.3608L16.4 24.7216H26.8L21.6 35.3608Z" fill="#ECEBFF"/>
<path d="M16.4 46L11.2 35.2784L21.6 35.3608L16.4 46Z" fill="#D9D8F2"/>
<path d="M47.6 46L42.4 35.3608L52.8 35.3608L47.6 46Z" fill="#D9D8F2"/>
<path d="M42.4 35.3608L37.2 24.6392L47.6 24.6392L42.4 35.3608Z" fill="#ECEBFF"/>
<path d="M37.2 24.6392L42.4 35.3608L32 35.3608L37.2 24.6392Z" fill="#ECEBFF"/>
<path d="M42.4 14L47.6 24.6392L37.2 24.6392L42.4 14Z" fill="#ECEBFF"/>
<path d="M47.6 24.6392L52.8 35.3608L42.4 35.3608L47.6 24.6392Z" fill="#D9D8F2"/>
<path d="M52.8 35.3608L58 46H47.6L52.8 35.3608Z" fill="#ECEBFF"/>
<defs>
<linearGradient id="paint0_linear_271_1960" x1="0" y1="0" x2="64" y2="64" gradientUnits="userSpaceOnUse">
<stop stop-color="#4F46E5"/>
<stop offset="1" stop-color="#6366F1"/>
</linearGradient>
</defs>
</svg>
